<svg width="61" height="79" viewBox="0 0 61 79" fill="none" xmlns="http://www.w3.org/2000/svg">
<mask id="path-1-inside-1_142_62" fill="white">
<path d="M31.2708 36.2083L52.2717 53.8846L49.375 54.4771L47.2683 54.8721C45.1946 55.3 44.0096 57.6042 44.9313 59.4804L45.82 61.3896L50.2967 71.0671L45.6225 73.2396L41.1458 63.595L40.29 61.6858C40.0862 61.2326 39.7809 60.8323 39.3977 60.5159C39.0146 60.1994 38.5638 59.9753 38.0803 59.8608C37.5967 59.7462 37.0933 59.7444 36.6089 59.8554C36.1245 59.9664 35.6721 60.1872 35.2867 60.5008L33.6079 61.8175L31.2708 63.6938V36.2083ZM28.835 28.6046C28.1715 28.6046 27.5352 28.8682 27.0661 29.3373C26.5969 29.8065 26.3333 30.4428 26.3333 31.1063V68.7958C26.3333 70.1783 27.4525 71.2975 28.835 71.2975C29.4604 71.2975 29.9871 71.1 30.415 70.7708L36.7021 65.6688L42.1663 77.5846C42.5942 78.4733 43.4829 79 44.4375 79C44.7996 79 45.1617 79 45.5238 78.7367L54.6088 74.5233C55.8596 73.9308 56.4521 72.4167 55.7938 71.1987L50.2967 59.25L58.2296 57.7687C58.7745 57.6271 59.2664 57.3297 59.645 56.9129C60.5338 55.8596 60.4021 54.3125 59.25 53.3579L30.4808 29.1642L30.4479 29.1971C29.9977 28.8143 29.4259 28.6043 28.835 28.6046ZM42.7917 32.9167V26.3333H59.25V32.9167H42.7917ZM38.9404 15.6683L48.2558 6.35292L52.8971 10.9942L43.5817 20.3096L38.9404 15.6683ZM26.3333 0H32.9167V16.4583H26.3333V0ZM6.35292 48.2558L15.6683 38.9404L20.3096 43.5817L10.9942 52.8971L6.35292 48.2558ZM6.35292 10.9942L10.9942 6.35292L20.3096 15.6683L15.6683 20.3096L6.35292 10.9942ZM16.4583 32.9167H0V26.3333H16.4583V32.9167Z"/>
</mask>
<path d="M31.2708 36.2083L52.2717 53.8846L49.375 54.4771L47.2683 54.8721C45.1946 55.3 44.0096 57.6042 44.9313 59.4804L45.82 61.3896L50.2967 71.0671L45.6225 73.2396L41.1458 63.595L40.29 61.6858C40.0862 61.2326 39.7809 60.8323 39.3977 60.5159C39.0146 60.1994 38.5638 59.9753 38.0803 59.8608C37.5967 59.7462 37.0933 59.7444 36.6089 59.8554C36.1245 59.9664 35.6721 60.1872 35.2867 60.5008L33.6079 61.8175L31.2708 63.6938V36.2083ZM28.835 28.6046C28.1715 28.6046 27.5352 28.8682 27.0661 29.3373C26.5969 29.8065 26.3333 30.4428 26.3333 31.1063V68.7958C26.3333 70.1783 27.4525 71.2975 28.835 71.2975C29.4604 71.2975 29.9871 71.1 30.415 70.7708L36.7021 65.6688L42.1663 77.5846C42.5942 78.4733 43.4829 79 44.4375 79C44.7996 79 45.1617 79 45.5238 78.7367L54.6088 74.5233C55.8596 73.9308 56.4521 72.4167 55.7938 71.1987L50.2967 59.25L58.2296 57.7687C58.7745 57.6271 59.2664 57.3297 59.645 56.9129C60.5338 55.8596 60.4021 54.3125 59.25 53.3579L30.4808 29.1642L30.4479 29.1971C29.9977 28.8143 29.4259 28.6043 28.835 28.6046ZM42.7917 32.9167V26.3333H59.25V32.9167H42.7917ZM38.9404 15.6683L48.2558 6.35292L52.8971 10.9942L43.5817 20.3096L38.9404 15.6683ZM26.3333 0H32.9167V16.4583H26.3333V0ZM6.35292 48.2558L15.6683 38.9404L20.3096 43.5817L10.9942 52.8971L6.35292 48.2558ZM6.35292 10.9942L10.9942 6.35292L20.3096 15.6683L15.6683 20.3096L6.35292 10.9942ZM16.4583 32.9167H0V26.3333H16.4583V32.9167Z" fill="white"/>
<path d="M31.2708 36.2083L31.9148 35.4433L30.2708 34.0596V36.2083H31.2708ZM52.2717 53.8846L52.4721 54.8643L54.4966 54.4502L52.9156 53.1195L52.2717 53.8846ZM49.375 54.4771L49.5593 55.46L49.5674 55.4584L49.5754 55.4568L49.375 54.4771ZM47.2683 54.8721L47.084 53.8892L47.0751 53.8909L47.0662 53.8927L47.2683 54.8721ZM44.9313 59.4804L45.8378 59.0584L45.8334 59.0489L45.8288 59.0395L44.9313 59.4804ZM45.82 61.3896L46.7276 60.9697L46.7266 60.9676L45.82 61.3896ZM50.2967 71.0671L50.7182 71.9739L51.6233 71.5532L51.2043 70.6472L50.2967 71.0671ZM45.6225 73.2396L44.7155 73.6606L45.1367 74.5681L46.044 74.1464L45.6225 73.2396ZM41.1458 63.595L40.2332 64.0041L40.2388 64.016L41.1458 63.595ZM40.29 61.6858L41.2025 61.2768L41.202 61.2757L40.29 61.6858ZM35.2867 60.5008L35.9038 61.2877L35.9109 61.2822L35.9178 61.2765L35.2867 60.5008ZM33.6079 61.8175L32.9907 61.0306L32.9819 61.0377L33.6079 61.8175ZM31.2708 63.6938H30.2708V65.779L31.8969 64.4735L31.2708 63.6938ZM26.3333 31.1063H25.3333H26.3333ZM30.415 70.7708L31.0247 71.5635L31.035 71.5555L31.0451 71.5473L30.415 70.7708ZM36.7021 65.6688L37.6111 65.2519L37.0735 64.0795L36.0719 64.8923L36.7021 65.6688ZM42.1663 77.5846L41.2573 78.0014L41.2612 78.0099L41.2653 78.0184L42.1663 77.5846ZM45.5238 78.7367L45.103 77.8295L45.0145 77.8705L44.9356 77.9279L45.5238 78.7367ZM54.6088 74.5233L55.0295 75.4305L55.0368 75.4271L54.6088 74.5233ZM55.7938 71.1987L54.8853 71.6167L54.8987 71.6459L54.914 71.6743L55.7938 71.1987ZM50.2967 59.25L50.1131 58.267L48.852 58.5025L49.3882 59.6679L50.2967 59.25ZM58.2296 57.7687L58.4131 58.7518L58.4474 58.7454L58.4812 58.7366L58.2296 57.7687ZM59.645 56.9129L60.3852 57.5853L60.3975 57.5718L60.4093 57.5578L59.645 56.9129ZM59.25 53.3579L58.6064 54.1233L58.612 54.1279L59.25 53.3579ZM30.4808 29.1642L31.1245 28.3988L30.4224 27.8084L29.7737 28.4571L30.4808 29.1642ZM30.4479 29.1971L29.8002 29.959L30.5029 30.5563L31.155 29.9042L30.4479 29.1971ZM42.7917 32.9167H41.7917V33.9167H42.7917V32.9167ZM42.7917 26.3333V25.3333H41.7917V26.3333H42.7917ZM59.25 26.3333H60.25V25.3333H59.25V26.3333ZM59.25 32.9167V33.9167H60.25V32.9167H59.25ZM38.9404 15.6683L38.2333 14.9612L37.5262 15.6683L38.2333 16.3754L38.9404 15.6683ZM48.2558 6.35292L48.9629 5.64581L48.2558 4.9387L47.5487 5.64581L48.2558 6.35292ZM52.8971 10.9942L53.6042 11.7013L54.3113 10.9942L53.6042 10.2871L52.8971 10.9942ZM43.5817 20.3096L42.8746 21.0167L43.5817 21.7238L44.2888 21.0167L43.5817 20.3096ZM26.3333 0V-1H25.3333V0H26.3333ZM32.9167 0H33.9167V-1H32.9167V0ZM32.9167 16.4583V17.4583H33.9167V16.4583H32.9167ZM26.3333 16.4583H25.3333V17.4583H26.3333V16.4583ZM15.6683 38.9404L16.3754 38.2333L15.6683 37.5262L14.9612 38.2333L15.6683 38.9404ZM20.3096 43.5817L21.0167 44.2888L21.7238 43.5817L21.0167 42.8746L20.3096 43.5817ZM10.9942 52.8971L10.2871 53.6042L10.9942 54.3113L11.7013 53.6042L10.9942 52.8971ZM6.35292 10.9942L5.64581 10.2871L4.9387 10.9942L5.64581 11.7013L6.35292 10.9942ZM10.9942 6.35292L11.7013 5.64581L10.9942 4.9387L10.2871 5.64581L10.9942 6.35292ZM20.3096 15.6683L21.0167 16.3754L21.7238 15.6683L21.0167 14.9612L20.3096 15.6683ZM15.6683 20.3096L14.9612 21.0167L15.6683 21.7238L16.3754 21.0167L15.6683 20.3096ZM16.4583 32.9167V33.9167H17.4583V32.9167H16.4583ZM0 32.9167H-1V33.9167H0V32.9167ZM0 26.3333V25.3333H-1V26.3333H0ZM16.4583 26.3333H17.4583V25.3333H16.4583V26.3333ZM30.6269 36.9734L51.6277 54.6497L52.9156 53.1195L31.9148 35.4433L30.6269 36.9734ZM52.0713 52.9049L49.1746 53.4974L49.5754 55.4568L52.4721 54.8643L52.0713 52.9049ZM49.1907 53.4942L47.084 53.8892L47.4526 55.855L49.5593 55.46L49.1907 53.4942ZM47.0662 53.8927C44.3862 54.4458 42.8085 57.4273 44.0337 59.9213L45.8288 59.0395C45.2106 57.7811 46.003 56.1543 47.4704 55.8515L47.0662 53.8927ZM44.0247 59.9024L44.9134 61.8116L46.7266 60.9676L45.8378 59.0584L44.0247 59.9024ZM44.9124 61.8094L49.3891 71.4869L51.2043 70.6472L46.7276 60.9697L44.9124 61.8094ZM49.8752 70.1602L45.201 72.3327L46.044 74.1464L50.7182 71.9739L49.8752 70.1602ZM46.5296 72.8186L42.0529 63.174L40.2388 64.016L44.7155 73.6606L46.5296 72.8186ZM42.0583 63.1859L41.2025 61.2768L39.3775 62.0949L40.2333 64.0041L42.0583 63.1859ZM41.202 61.2757C40.9353 60.6827 40.5359 60.1589 40.0345 59.7449L38.7609 61.2869C39.0259 61.5058 39.237 61.7826 39.378 62.096L41.202 61.2757ZM40.0345 59.7449C39.5332 59.3308 38.9434 59.0375 38.3107 58.8877L37.8498 60.8338C38.1842 60.913 38.4959 61.0681 38.7609 61.2869L40.0345 59.7449ZM38.3107 58.8877C37.678 58.7378 37.0193 58.7354 36.3856 58.8806L36.8322 60.8301C37.1672 60.7534 37.5154 60.7546 37.8498 60.8338L38.3107 58.8877ZM36.3856 58.8806C35.7518 59.0258 35.1599 59.3148 34.6555 59.7252L35.9178 61.2765C36.1844 61.0596 36.4972 60.9069 36.8322 60.8301L36.3856 58.8806ZM34.6695 59.714L32.9908 61.0307L34.2251 62.6044L35.9038 61.2877L34.6695 59.714ZM32.9819 61.0377L30.6448 62.914L31.8969 64.4735L34.234 62.5973L32.9819 61.0377ZM32.2708 63.6938V36.2083H30.2708V63.6938H32.2708ZM28.835 27.6046C27.9063 27.6046 27.0156 27.9735 26.3589 28.6302L27.7732 30.0444C28.0548 29.7628 28.4367 29.6046 28.835 29.6046V27.6046ZM26.3589 28.6302C25.7023 29.2869 25.3333 30.1775 25.3333 31.1063H27.3333C27.3333 30.708 27.4915 30.326 27.7732 30.0444L26.3589 28.6302ZM25.3333 31.1063V68.7958H27.3333V31.1063H25.3333ZM25.3333 68.7958C25.3333 70.7306 26.9002 72.2975 28.835 72.2975V70.2975C28.0048 70.2975 27.3333 69.626 27.3333 68.7958H25.3333ZM28.835 72.2975C29.6855 72.2975 30.4256 72.0243 31.0247 71.5635L29.8053 69.9782C29.5485 70.1757 29.2353 70.2975 28.835 70.2975V72.2975ZM31.0451 71.5473L37.3322 66.4452L36.0719 64.8923L29.7849 69.9943L31.0451 71.5473ZM35.7931 66.0856L41.2573 78.0014L43.0752 77.1678L37.6111 65.2519L35.7931 66.0856ZM41.2653 78.0184C41.8666 79.2673 43.1146 80 44.4375 80V78C43.8513 78 43.3218 77.6794 43.0673 77.1508L41.2653 78.0184ZM44.4375 80C44.7839 80 45.4583 80.0207 46.1119 79.5454L44.9356 77.9279C44.8932 77.9588 44.8572 77.9731 44.8017 77.9832C44.7239 77.9974 44.6328 78 44.4375 78V80ZM45.9445 79.6439L55.0295 75.4305L54.188 73.6161L45.103 77.8295L45.9445 79.6439ZM55.0368 75.4271C56.7423 74.6192 57.6366 72.505 56.6735 70.7232L54.914 71.6743C55.2676 72.3283 54.9769 73.2424 54.1807 73.6196L55.0368 75.4271ZM56.7022 70.7808L51.2051 58.8321L49.3882 59.6679L54.8853 71.6167L56.7022 70.7808ZM50.4802 60.233L58.4131 58.7518L58.046 56.7857L50.1131 58.267L50.4802 60.233ZM58.4812 58.7366C59.2142 58.546 59.8759 58.146 60.3852 57.5853L58.9048 56.2405C58.6569 56.5134 58.3349 56.7082 57.978 56.8009L58.4812 58.7366ZM60.4093 57.5578C61.6733 56.0598 61.4477 53.8802 59.888 52.5879L58.612 54.1279C59.3564 54.7448 59.3943 55.6594 58.8807 56.2681L60.4093 57.5578ZM59.8936 52.5926L31.1245 28.3988L29.8372 29.9295L58.6064 54.1233L59.8936 52.5926ZM29.7737 28.4571L29.7408 28.49L31.155 29.9042L31.1879 29.8713L29.7737 28.4571ZM31.0956 28.4352C30.4644 27.8986 29.6629 27.6042 28.8345 27.6046L28.8355 29.6046C29.1889 29.6044 29.5309 29.73 29.8002 29.959L31.0956 28.4352ZM43.7917 32.9167V26.3333H41.7917V32.9167H43.7917ZM42.7917 27.3333H59.25V25.3333H42.7917V27.3333ZM58.25 26.3333V32.9167H60.25V26.3333H58.25ZM59.25 31.9167H42.7917V33.9167H59.25V31.9167ZM39.6475 16.3754L48.9629 7.06002L47.5487 5.64581L38.2333 14.9612L39.6475 16.3754ZM47.5487 7.06002L52.19 11.7013L53.6042 10.2871L48.9629 5.64581L47.5487 7.06002ZM52.19 10.2871L42.8746 19.6025L44.2888 21.0167L53.6042 11.7013L52.19 10.2871ZM44.2888 19.6025L39.6475 14.9612L38.2333 16.3754L42.8746 21.0167L44.2888 19.6025ZM26.3333 1H32.9167V-1H26.3333V1ZM31.9167 0V16.4583H33.9167V0H31.9167ZM32.9167 15.4583H26.3333V17.4583H32.9167V15.4583ZM27.3333 16.4583V0H25.3333V16.4583H27.3333ZM7.06002 48.9629L16.3754 39.6475L14.9612 38.2333L5.64581 47.5487L7.06002 48.9629ZM14.9612 39.6475L19.6025 44.2888L21.0167 42.8746L16.3754 38.2333L14.9612 39.6475ZM19.6025 42.8746L10.2871 52.19L11.7013 53.6042L21.0167 44.2888L19.6025 42.8746ZM11.7013 52.19L7.06002 47.5487L5.64581 48.9629L10.2871 53.6042L11.7013 52.19ZM7.06002 11.7013L11.7013 7.06002L10.2871 5.64581L5.64581 10.2871L7.06002 11.7013ZM10.2871 7.06002L19.6025 16.3754L21.0167 14.9612L11.7013 5.64581L10.2871 7.06002ZM19.6025 14.9612L14.9612 19.6025L16.3754 21.0167L21.0167 16.3754L19.6025 14.9612ZM16.3754 19.6025L7.06002 10.2871L5.64581 11.7013L14.9612 21.0167L16.3754 19.6025ZM16.4583 31.9167H0V33.9167H16.4583V31.9167ZM1 32.9167V26.3333H-1V32.9167H1ZM0 27.3333H16.4583V25.3333H0V27.3333ZM15.4583 26.3333V32.9167H17.4583V26.3333H15.4583Z" fill="black" mask="url(#path-1-inside-1_142_62)"/>
</svg>
