<svg width="26" height="26" viewBox="0 0 26 26" fill="none" xmlns="http://www.w3.org/2000/svg">
<path d="M13 0.5C19.9 0.5 25.5 6.1 25.5 13C25.5 19.9 19.9 25.5 13 25.5C6.1 25.5 0.5 19.9 0.5 13C0.5 6.1 6.1 0.5 13 0.5ZM13 6.75C9.55 6.75 6.75 9.55 6.75 13C6.75185 14.366 7.201 15.6938 8.02878 16.7804C8.85656 17.8671 10.0174 18.6527 11.3339 19.0172C12.6503 19.3818 14.05 19.3052 15.3188 18.7991C16.5876 18.2931 17.6558 17.3855 18.36 16.215L16.2162 14.93C15.8789 15.492 15.4001 15.9558 14.8276 16.2751C14.2551 16.5944 13.6089 16.758 12.9534 16.7497C12.298 16.7414 11.6561 16.5614 11.0919 16.2277C10.5277 15.8939 10.0609 15.4182 9.73786 14.8477C9.41487 14.2773 9.24704 13.6322 9.25111 12.9767C9.25518 12.3212 9.43101 11.6782 9.76106 11.1119C10.0911 10.5455 10.5639 10.0756 11.1322 9.74887C11.7005 9.42219 12.3445 9.25018 13 9.25C14.3663 9.25 15.5625 9.98 16.2175 11.0712L18.36 9.78375C17.8047 8.85821 17.0191 8.0923 16.0797 7.56064C15.1404 7.02898 14.0794 6.74969 13 6.75Z" fill="#F2F2F2"/>
</svg>
