<svg width="49" height="49" viewBox="0 0 49 49" fill="none" xmlns="http://www.w3.org/2000/svg">
<circle cx="24.6583" cy="24.5402" r="23.982" fill="#F2F2F2"/>
<path d="M11.4436 15.9751C11.4436 15.2611 11.7221 14.5764 12.2177 14.0716C12.7133 13.5668 13.3856 13.2832 14.0865 13.2832H35.2298C35.9308 13.2832 36.603 13.5668 37.0986 14.0716C37.5943 14.5764 37.8727 15.2611 37.8727 15.9751V28.0884C37.8727 28.8023 37.5943 29.487 37.0986 29.9918C36.603 30.4967 35.9308 30.7803 35.2298 30.7803H14.0865C13.3856 30.7803 12.7133 30.4967 12.2177 29.9918C11.7221 29.487 11.4436 28.8023 11.4436 28.0884V15.9751ZM19.3723 34.818H29.944H19.3723Z" fill="#F2F2F2"/>
<path d="M19.3723 34.818H29.944M11.4436 15.9751C11.4436 15.2611 11.7221 14.5764 12.2177 14.0716C12.7133 13.5668 13.3856 13.2832 14.0865 13.2832H35.2298C35.9308 13.2832 36.603 13.5668 37.0986 14.0716C37.5943 14.5764 37.8727 15.2611 37.8727 15.9751V28.0884C37.8727 28.8023 37.5943 29.487 37.0986 29.9918C36.603 30.4967 35.9308 30.7803 35.2298 30.7803H14.0865C13.3856 30.7803 12.7133 30.4967 12.2177 29.9918C11.7221 29.487 11.4436 28.8023 11.4436 28.0884V15.9751Z" stroke="black" stroke-width="3" stroke-linecap="round" stroke-linejoin="round"/>
</svg>
