<svg width="78" height="78" viewBox="0 0 78 78" fill="none" xmlns="http://www.w3.org/2000/svg">
<circle cx="38.8111" cy="38.63" r="38.3858" fill="black"/>
<path d="M54.8052 20.3508H22.817C20.9991 20.3508 19.2556 21.073 17.9701 22.3585C16.6846 23.644 15.9624 25.3875 15.9624 27.2054V50.0541C15.9624 51.8721 16.6846 53.6156 17.9701 54.9011C19.2556 56.1866 20.9991 56.9088 22.817 56.9088H54.8052C56.6232 56.9088 58.3667 56.1866 59.6521 54.9011C60.9376 53.6156 61.6598 51.8721 61.6598 50.0541V27.2054C61.6598 25.3875 60.9376 23.644 59.6521 22.3585C58.3667 21.073 56.6232 20.3508 54.8052 20.3508ZM53.2743 24.9206L38.8111 35.7737L24.3479 24.9206H53.2743ZM54.8052 52.339H22.817C22.211 52.339 21.6299 52.0983 21.2014 51.6698C20.7729 51.2413 20.5321 50.6601 20.5321 50.0541V27.7767L37.4402 40.4577C37.8357 40.7543 38.3167 40.9147 38.8111 40.9147C39.3055 40.9147 39.7865 40.7543 40.182 40.4577L57.0901 27.7767V50.0541C57.0901 50.6601 56.8493 51.2413 56.4209 51.6698C55.9924 52.0983 55.4112 52.339 54.8052 52.339Z" fill="#F2F2F2"/>
</svg>
