<svg width="93" height="93" viewBox="0 0 93 93" fill="none" xmlns="http://www.w3.org/2000/svg">
<path d="M50.375 32.9375H34.875C27.3846 32.9375 21.3125 26.8654 21.3125 19.375C21.3125 11.8846 27.3846 5.8125 34.875 5.8125H50.375V32.9375Z" fill="#E64A19"/>
<path d="M48.4375 60.0625H34.875C27.3846 60.0625 21.3125 53.9904 21.3125 46.5C21.3125 39.0096 27.3846 32.9375 34.875 32.9375H48.4375V60.0625Z" fill="#7C4DFF"/>
<path d="M34.875 87.1875C27.3846 87.1875 21.3125 81.1154 21.3125 73.625C21.3125 66.1346 27.3846 60.0625 34.875 60.0625H48.4375V73.625C48.4375 81.1154 42.3654 87.1875 34.875 87.1875Z" fill="#66BB6A"/>
<path d="M62 32.9375H48.4375V5.8125H62C69.4904 5.8125 75.5625 11.8846 75.5625 19.375C75.5625 26.8654 69.4904 32.9375 62 32.9375Z" fill="#FF7043"/>
<path d="M62 60.0625C69.4904 60.0625 75.5625 53.9904 75.5625 46.5C75.5625 39.0096 69.4904 32.9375 62 32.9375C54.5096 32.9375 48.4375 39.0096 48.4375 46.5C48.4375 53.9904 54.5096 60.0625 62 60.0625Z" fill="#29B6F6"/>
</svg>
