<svg width="63" height="94" viewBox="0 0 63 94" fill="none" xmlns="http://www.w3.org/2000/svg">
<g clip-path="url(#clip0_112_251)">
<path d="M15.6667 94C24.3147 94 31.3333 86.9813 31.3333 78.3333V62.6667H15.6667C7.01867 62.6667 0 69.6853 0 78.3333C0 86.9813 7.01867 94 15.6667 94Z" fill="#0ACF83"/>
<path d="M0 47C0 38.352 7.01867 31.3333 15.6667 31.3333H31.3333V62.6667H15.6667C7.01867 62.6667 0 55.648 0 47Z" fill="#A259FF"/>
<path d="M0 15.6667C0 7.01867 7.01867 0 15.6667 0H31.3333V31.3333H15.6667C7.01867 31.3333 0 24.3147 0 15.6667Z" fill="#F24E1E"/>
<path d="M31.3335 0H47.0002C55.6482 0 62.6668 7.01867 62.6668 15.6667C62.6668 24.3147 55.6482 31.3333 47.0002 31.3333H31.3335V0Z" fill="#FF7262"/>
<path d="M62.6668 47C62.6668 55.648 55.6482 62.6667 47.0002 62.6667C38.3522 62.6667 31.3335 55.648 31.3335 47C31.3335 38.352 38.3522 31.3333 47.0002 31.3333C55.6482 31.3333 62.6668 38.352 62.6668 47Z" fill="#1ABCFE"/>
</g>
<defs>
<clipPath id="clip0_112_251">
<rect width="62.6667" height="94" fill="white"/>
</clipPath>
</defs>
</svg>
