<svg width="94" height="94" viewBox="0 0 94 94" fill="none" xmlns="http://www.w3.org/2000/svg">
<g clip-path="url(#clip0_112_259)">
<path d="M92.2259 42.8111L51.1831 1.77425C50.6212 1.21202 49.954 0.766025 49.2196 0.461734C48.4852 0.157443 47.6981 0.000823975 46.9032 0.000823975C46.1083 0.000823975 45.3212 0.157443 44.5868 0.461734C43.8524 0.766025 43.1852 1.21202 42.6233 1.77425L34.1045 10.293L44.9145 21.103C46.1894 20.6677 47.561 20.5996 48.8728 20.9065C50.1845 21.2133 51.3836 21.8828 52.3331 22.8384C53.2826 23.7941 53.9443 24.9974 54.2427 26.3111C54.5412 27.6248 54.4642 28.9959 54.0208 30.268L64.4371 40.6903C65.9782 40.1476 67.6581 40.146 69.2003 40.6856C70.7424 41.2252 72.0549 42.2738 72.9215 43.6589C73.7881 45.0439 74.1572 46.6828 73.968 48.3056C73.7788 49.9285 73.0427 51.4385 71.8808 52.5871C70.7045 53.7706 69.1538 54.509 67.4936 54.6761C65.8334 54.8433 64.1667 54.4288 62.7781 53.5036C61.3895 52.5783 60.3653 51.1997 59.8803 49.6031C59.3953 48.0066 59.4797 46.2911 60.119 44.7499L50.4076 35.0326V60.6065C51.8838 61.3372 53.0649 62.5517 53.7541 64.0477C54.4434 65.5436 54.5991 67.2306 54.1953 68.8274C53.7915 70.4242 52.8527 71.8344 51.5352 72.823C50.2177 73.8115 48.6013 74.3186 46.9552 74.2599C45.3092 74.2011 43.733 73.5799 42.4895 72.4999C41.2459 71.4199 40.41 69.9463 40.1212 68.3248C39.8323 66.7032 40.108 65.0316 40.9022 63.5887C41.6964 62.1457 42.9611 61.0185 44.4856 60.395V34.5861C43.6061 34.2257 42.8066 33.6948 42.1332 33.0239C41.4598 32.3531 40.9258 31.5556 40.5621 30.6774C40.1984 29.7992 40.0121 28.8577 40.0139 27.9072C40.0158 26.9566 40.2057 26.0159 40.5729 25.1391L29.9215 14.4819L1.78026 42.6231C1.21804 43.1851 0.772037 43.8523 0.467746 44.5867C0.163455 45.321 0.00683594 46.1082 0.00683594 46.9031C0.00683594 47.698 0.163455 48.4851 0.467746 49.2195C0.772037 49.9538 1.21804 50.6211 1.78026 51.183L42.823 92.2258C43.385 92.788 44.0522 93.234 44.7865 93.5383C45.5209 93.8426 46.308 93.9992 47.103 93.9992C47.8979 93.9992 48.685 93.8426 49.4194 93.5383C50.1537 93.234 50.8209 92.788 51.3829 92.2258L92.2318 51.3769C93.3658 50.2412 94.0028 48.7019 94.0028 47.0969C94.0028 45.492 93.3658 43.9527 92.2318 42.817" fill="#E44D30"/>
</g>
<defs>
<clipPath id="clip0_112_259">
<rect width="94" height="94" fill="white"/>
</clipPath>
</defs>
</svg>
