<svg width="90" height="90" viewBox="0 0 90 90" fill="none" xmlns="http://www.w3.org/2000/svg">
<g clip-path="url(#clip0_334_41)">
<path d="M88.3012 40.9894L49.0049 1.69876C48.4669 1.16045 47.8281 0.733433 47.125 0.442091C46.4218 0.150748 45.6682 0.000793457 44.9071 0.000793457C44.146 0.000793457 43.3924 0.150748 42.6893 0.442091C41.9862 0.733433 41.3473 1.16045 40.8093 1.69876L32.6531 9.85501L43.0031 20.205C44.2237 19.7882 45.5369 19.723 46.7929 20.0168C48.0488 20.3106 49.1968 20.9516 50.1059 21.8666C51.015 22.7816 51.6486 23.9337 51.9343 25.1915C52.2201 26.4493 52.1464 27.7621 51.7218 28.98L61.6949 38.9588C63.1704 38.4392 64.7789 38.4377 66.2554 38.9543C67.7319 39.4709 68.9885 40.475 69.8182 41.8011C70.6479 43.1272 71.0013 44.6963 70.8202 46.2501C70.6391 47.8039 69.9343 49.2497 68.8218 50.3494C67.6956 51.4825 66.2109 52.1895 64.6214 52.3495C63.0318 52.5095 61.436 52.1127 60.1065 51.2268C58.777 50.341 57.7963 49.021 57.332 47.4924C56.8676 45.9637 56.9484 44.3213 57.5606 42.8456L48.2624 33.5419V58.0275C49.6758 58.7271 50.8066 59.89 51.4665 61.3222C52.1264 62.7545 52.2755 64.3697 51.8889 65.8986C51.5023 67.4275 50.6034 68.7777 49.342 69.7241C48.0806 70.6706 46.5329 71.1562 44.9569 71.0999C43.381 71.0436 41.8719 70.4489 40.6812 69.4148C39.4905 68.3808 38.6902 66.9699 38.4137 65.4173C38.1372 63.8648 38.4011 62.2643 39.1615 60.8828C39.9219 59.5012 41.1328 58.422 42.5924 57.825V33.1144C41.7503 32.7693 40.9848 32.261 40.3401 31.6187C39.6953 30.9764 39.1841 30.2128 38.8359 29.372C38.4876 28.5312 38.3092 27.6297 38.311 26.7196C38.3128 25.8096 38.4947 24.9088 38.8462 24.0694L28.6481 13.8656L1.70431 40.8094C1.16601 41.3474 0.738987 41.9862 0.447645 42.6894C0.156302 43.3925 0.00634766 44.1461 0.00634766 44.9072C0.00634766 45.6683 0.156302 46.4219 0.447645 47.125C0.738987 47.8281 1.16601 48.467 1.70431 49.005L41.0006 88.3013C41.5386 88.8396 42.1774 89.2666 42.8805 89.5579C43.5837 89.8493 44.3373 89.9992 45.0984 89.9992C45.8595 89.9992 46.6131 89.8493 47.3162 89.5579C48.0193 89.2666 48.6581 88.8396 49.1962 88.3013L88.3068 49.1906C89.3926 48.1033 90.0024 46.6295 90.0024 45.0928C90.0024 43.5562 89.3926 42.0824 88.3068 40.995" fill="#F24E1E"/>
</g>
<defs>
<clipPath id="clip0_334_41">
<rect width="90" height="90" fill="white"/>
</clipPath>
</defs>
</svg>
