<svg width="49" height="49" viewBox="0 0 49 49" fill="none" xmlns="http://www.w3.org/2000/svg">
<g clip-path="url(#clip0_146_95)">
<path fill-rule="evenodd" clip-rule="evenodd" d="M24.2125 0.558228C10.9624 0.558228 0.230469 11.2902 0.230469 24.5402C0.230469 35.1522 7.09531 44.1155 16.6281 47.2931C17.8272 47.503 18.2769 46.7835 18.2769 46.154C18.2769 45.5844 18.2469 43.6958 18.2469 41.6873C12.2215 42.7965 10.6626 40.2184 10.183 38.8694C9.91319 38.18 8.74407 36.0516 7.72484 35.482C6.88547 35.0323 5.68637 33.9232 7.69486 33.8932C9.58344 33.8632 10.9324 35.6319 11.3821 36.3513C13.5405 39.9786 16.9879 38.9594 18.3668 38.3298C18.5767 36.771 19.2062 35.7218 19.8957 35.1223C14.5597 34.5227 8.98389 32.4543 8.98389 23.2812C8.98389 20.6731 9.91319 18.5147 11.442 16.836C11.2022 16.2364 10.3629 13.7783 11.6819 10.4808C11.6819 10.4808 13.6904 9.85124 18.2769 12.9389C20.1955 12.3993 22.2339 12.1295 24.2724 12.1295C26.3109 12.1295 28.3493 12.3993 30.2679 12.9389C34.8545 9.82127 36.8629 10.4808 36.8629 10.4808C38.182 13.7783 37.3426 16.2364 37.1028 16.836C38.6316 18.5147 39.5609 20.6431 39.5609 23.2812C39.5609 32.4842 33.9551 34.5227 28.6191 35.1223C29.4885 35.8717 30.2379 37.3106 30.2379 39.5589C30.2379 42.7665 30.2079 45.3446 30.2079 46.154C30.2079 46.7835 30.6576 47.5329 31.8567 47.2931C36.6175 45.6858 40.7544 42.626 43.6851 38.5444C46.6159 34.4629 48.193 29.565 48.1944 24.5402C48.1944 11.2902 37.4625 0.558228 24.2125 0.558228Z" fill="#F2F2F2"/>
</g>
<defs>
<clipPath id="clip0_146_95">
<rect width="47.964" height="47.964" fill="white" transform="translate(0.230469 0.558228)"/>
</clipPath>
</defs>
</svg>
