<svg width="31" height="33" viewBox="0 0 31 33" fill="none" xmlns="http://www.w3.org/2000/svg">
<path d="M26.9288 11.7403L18.6907 12.5935L20.1976 11.9525L20.2654 11.9236L20.3221 11.8764L25.5106 7.54927L26.8331 6.44633L25.1256 6.6695L16.6765 7.77377L29.598 1.4494L26.9288 11.7403ZM19.7382 11.0612L15.7313 12.7657L14.4006 9.07972L23.5476 7.88423L19.7382 11.0612ZM13.578 9.7462L14.9064 13.4257L13.4609 17.1198L13.3693 17.354L13.5026 17.5671L15.2613 20.3799L14.0951 25.2025L7.15969 19.0109L13.578 9.7462ZM27.0118 23.3708L30.1069 31.6236L17.7926 26.9024L25.7062 27.5281L27.5939 27.6774L26.0259 26.6157L18.2871 21.3755L27.0118 23.3708ZM23.8973 26.382L15.0086 25.6792L16.1132 21.1113L23.8973 26.382ZM6.16397 19.4625L11.2156 23.9723L1.88923 19.2667L11.1774 11.4554L6.08595 18.8048L5.83423 19.1681L6.16397 19.4625Z" stroke="black"/>
</svg>
