<svg width="92" height="92" viewBox="0 0 92 92" fill="none" xmlns="http://www.w3.org/2000/svg">
<path d="M0 0H91.7349V91.7349H0V0ZM84.2241 69.8619C83.5533 65.665 80.8185 62.1562 72.7429 58.8738C69.9364 57.5608 66.8002 56.6349 65.8743 54.5135C65.5303 53.2579 65.4701 52.5727 65.6937 51.8245C66.2756 49.3448 69.1882 48.6138 71.4873 49.3018C72.9809 49.7633 74.354 50.8986 75.2198 52.7361C79.1759 50.1532 79.1758 50.1532 81.925 48.436C80.8959 46.8393 80.3885 46.1369 79.6861 45.4661C77.281 42.7628 74.0731 41.3897 68.8614 41.5101L66.1581 41.8541C63.5752 42.4819 61.1127 43.855 59.6191 45.6926C55.2732 50.6205 56.5288 59.2206 61.7978 62.7897C67.0095 66.6856 74.6378 67.537 75.624 71.2121C76.5356 75.6928 72.2957 77.1262 68.0989 76.6015C65.0085 75.9135 63.2914 74.3626 61.3936 71.4959L54.4046 75.5122C55.1958 77.3498 56.1217 78.141 57.4949 79.7521C64.1399 86.4573 80.7726 86.1133 83.7569 75.9135C83.8601 75.5695 84.6685 73.2102 84.0407 69.6125L84.2241 69.8619ZM49.8837 42.1637H41.2979C41.2979 49.5684 41.2521 56.9301 41.2521 64.3521C41.2521 69.0563 41.49 73.3851 40.7303 74.7152C39.4604 77.344 36.221 77.0144 34.7417 76.5528C33.2338 75.8075 32.457 74.7754 31.5769 73.2819C31.3217 72.8777 31.144 72.5365 31.0838 72.5365L24.112 76.8366C25.2758 79.2418 26.9787 81.3173 29.1746 82.6302C32.4455 84.5853 36.8344 85.2132 41.4327 84.184C44.4198 83.3183 47.0027 81.5409 48.3443 78.7946C50.2994 75.2399 49.8809 70.8824 49.8665 65.9976C49.9124 58.1427 49.8665 50.2908 49.8665 42.3758L49.8837 42.1637Z" fill="#EFD81D"/>
</svg>
