<svg width="78" height="78" viewBox="0 0 78 78" fill="none" xmlns="http://www.w3.org/2000/svg">
<path d="M38.8111 0.251953C17.6112 0.251953 0.425293 17.4379 0.425293 38.6378C0.425293 59.8377 17.6112 77.0236 38.8111 77.0236C60.011 77.0236 77.1969 59.8377 77.1969 38.6378C77.1969 17.4379 60.011 0.251953 38.8111 0.251953ZM38.8111 13.255C49.3791 13.255 57.9478 21.8238 57.9478 32.3916C57.9478 35.5928 57.0706 39.8187 55.2674 42.2082L38.8111 64.0206L22.3547 42.2084C20.3695 39.5775 19.6744 35.9259 19.6744 32.3918C19.6744 21.8238 28.2432 13.255 38.8111 13.255ZM38.8111 24.3415C34.3646 24.3415 30.761 27.9451 30.761 32.3916C30.761 36.8382 34.3646 40.4418 38.8111 40.4418C43.2577 40.4418 46.8613 36.8382 46.8613 32.3916C46.8613 27.9451 43.2577 24.3415 38.8111 24.3415Z" fill="black"/>
</svg>
