<svg width="58" height="62" viewBox="0 0 58 62" fill="none" xmlns="http://www.w3.org/2000/svg">
<rect width="58" height="62" fill="#1E1E1E"/>
<rect width="1440" height="1082" transform="translate(-106 -10)" fill="black"/>
<path d="M-106 -10H1334V67H614H-106V-10Z" fill="black"/>
<path d="M-105.712 -10.3502L236.827 -10L162.284 33.4777L79.5444 79.7506L-106 181L-105.712 -10.3502Z" fill="#F2F2F2"/>
<path d="M49.4739 22.1077L30.5579 24.4306L36.1319 21.9334L36.1992 21.9032L36.255 21.8549L45.9646 13.4394L47.2659 12.3116L45.5629 12.5671L26.8186 15.3801L54.4785 1.18457L49.4739 22.1077ZM35.6557 21.0509L27.6023 24.6591L24.568 16.7291L44.0083 13.8116L35.6557 21.0509ZM23.7582 17.4111L26.7901 25.3346L24.1162 32.5703L24.0291 32.8061L24.1664 33.0167L27.7157 38.4605L25.4684 48.5929L11.1835 36.3198L23.7582 17.4111ZM50.0158 43.4188L56.6584 60.1563L29.1975 50.2223L47.3808 51.3128L49.271 51.4262L47.6831 50.3945L30.7598 39.3985L50.0158 43.4188ZM45.5504 50.2013L26.3908 49.0522L28.5814 39.1756L45.5504 50.2013ZM10.1966 36.7902L22.566 47.4177L0.955921 37.0245L21.3905 19.1656L10.1061 36.1341L9.86132 36.5022L10.1966 36.7902Z" stroke="black"/>
</svg>
