<svg width="77" height="77" viewBox="0 0 77 77" fill="none" xmlns="http://www.w3.org/2000/svg">
<circle cx="38.3858" cy="38.3858" r="38.3858" fill="black"/>
<g clip-path="url(#clip0_202_47)">
<path fill-rule="evenodd" clip-rule="evenodd" d="M49.3206 43.5176C48.7505 43.2325 45.9551 41.8587 45.4347 41.6674C44.9142 41.478 44.5354 41.3842 44.1547 41.9544C43.7758 42.5207 42.6871 43.8027 42.3561 44.1815C42.0232 44.5623 41.6922 44.6082 41.1239 44.325C40.5557 44.038 38.7227 43.4391 36.5511 41.5029C34.8616 39.9952 33.7194 38.1335 33.3883 37.5633C33.0573 36.9951 33.352 36.687 33.6371 36.4038C33.8935 36.1494 34.2053 35.7399 34.4904 35.4089C34.7755 35.076 34.8693 34.8387 35.0587 34.458C35.25 34.0791 35.1543 33.7481 35.0108 33.463C34.8693 33.178 33.7327 30.3788 33.2582 29.2403C32.7971 28.1325 32.3284 28.2837 31.9801 28.2645C31.6472 28.2492 31.2684 28.2454 30.8895 28.2454C30.5107 28.2454 29.8946 28.387 29.3742 28.9571C28.8518 29.5254 27.3843 30.9011 27.3843 33.7003C27.3843 36.4976 29.4201 39.2011 29.7052 39.5819C29.9903 39.9607 33.7136 45.7045 39.4172 48.167C40.7757 48.7525 41.8338 49.1026 42.6584 49.3628C44.0207 49.7971 45.2606 49.7359 46.2402 49.5886C47.3308 49.426 49.6038 48.2129 50.0783 46.8851C50.5509 45.5572 50.5509 44.4188 50.4093 44.1815C50.2677 43.9443 49.8889 43.8027 49.3187 43.5176H49.3206ZM38.9466 57.682H38.9389C35.5512 57.6826 32.2258 56.7719 29.311 55.0454L28.6222 54.636L21.4626 56.5148L23.374 49.535L22.9243 48.8194C21.0304 45.8047 20.0281 42.3156 20.0333 38.7553C20.0371 28.3277 28.5208 19.844 38.9542 19.844C44.0054 19.844 48.7543 21.8147 52.3246 25.3888C54.0856 27.1425 55.4813 29.228 56.4311 31.5246C57.3809 33.8213 57.8659 36.2834 57.8579 38.7687C57.8541 49.1964 49.3704 57.682 38.9466 57.682ZM55.0415 22.6738C52.9334 20.5517 50.4251 18.8692 47.662 17.7236C44.8988 16.578 41.9358 15.9922 38.9447 16.0001C26.4047 16.0001 16.1952 26.2077 16.1913 38.7534C16.1855 42.746 17.2329 46.6696 19.2278 50.1281L16 61.92L28.0616 58.7554C31.3982 60.5732 35.1373 61.5258 38.937 61.5259H38.9466C51.4865 61.5259 61.6961 51.3182 61.6999 38.7706C61.7091 35.7806 61.1254 32.8184 59.9825 30.0555C58.8396 27.2925 57.1603 24.7835 55.0415 22.6738Z" fill="#F2F2F2"/>
</g>
<defs>
<clipPath id="clip0_202_47">
<rect width="45.7" height="45.7" fill="white" transform="translate(16 16)"/>
</clipPath>
</defs>
</svg>
