<svg width="343" height="192" viewBox="0 0 343 192" fill="none" xmlns="http://www.w3.org/2000/svg">
<path d="M0.142578 0.18042H343L33.2253 28.7518L0.142578 191.659V0.18042Z" fill="#F2F2F2" fill-opacity="0.9"/>
<path d="M343 191.659H0.142365L309.917 163.088L343 0.180481V191.659Z" fill="#F2F2F2" fill-opacity="0.9"/>
<path d="M106.131 105.383V88.5114H109.395V105.383H106.131ZM108.531 105.383V102.503H117.867V105.383H108.531ZM108.531 98.1594V95.3754H117.027V98.1594H108.531ZM108.531 91.3914V88.5114H117.747V91.3914H108.531ZM120.568 105.383V88.5114H122.872L129.712 99.4554H128.392L135.208 88.5114H137.512V105.383H134.272V94.1034L134.896 94.2954L130.144 101.927H127.936L123.184 94.2954L123.832 94.1034V105.383H120.568ZM148.046 105.383V102.719H152.438C153.222 102.719 153.83 102.479 154.262 101.999C154.71 101.519 154.934 100.951 154.934 100.295C154.934 99.8474 154.838 99.4394 154.646 99.0714C154.454 98.7034 154.166 98.4154 153.782 98.2074C153.414 97.9834 152.966 97.8714 152.438 97.8714H148.046V95.2314H152.078C152.75 95.2314 153.286 95.0634 153.686 94.7274C154.102 94.3914 154.31 93.8874 154.31 93.2154C154.31 92.5274 154.102 92.0154 153.686 91.6794C153.286 91.3434 152.75 91.1754 152.078 91.1754H148.046V88.5114H152.462C153.582 88.5114 154.518 88.7194 155.27 89.1354C156.038 89.5354 156.614 90.0714 156.998 90.7434C157.382 91.3994 157.574 92.1194 157.574 92.9034C157.574 93.8634 157.278 94.6954 156.686 95.3994C156.11 96.0874 155.262 96.5994 154.142 96.9354L154.286 95.8794C155.534 96.2314 156.494 96.8154 157.166 97.6314C157.854 98.4314 158.198 99.3994 158.198 100.535C158.198 101.431 157.974 102.247 157.526 102.983C157.094 103.703 156.454 104.287 155.606 104.735C154.774 105.167 153.758 105.383 152.558 105.383H148.046ZM145.646 105.383V88.5114H148.886V105.383H145.646ZM163.187 98.3274V95.7834H167.099C167.899 95.7834 168.515 95.5834 168.947 95.1834C169.395 94.7674 169.619 94.1994 169.619 93.4794C169.619 92.8234 169.395 92.2794 168.947 91.8474C168.515 91.3994 167.899 91.1754 167.099 91.1754H163.187V88.5114H167.387C168.475 88.5114 169.427 88.7274 170.243 89.1594C171.075 89.5754 171.715 90.1514 172.163 90.8874C172.627 91.6234 172.859 92.4714 172.859 93.4314C172.859 94.4234 172.627 95.2874 172.163 96.0234C171.715 96.7434 171.075 97.3114 170.243 97.7274C169.411 98.1274 168.443 98.3274 167.339 98.3274H163.187ZM160.787 105.383V88.5114H164.051V105.383H160.787ZM170.003 105.383L164.435 98.0874L167.435 97.1514L173.963 105.383H170.003ZM175.811 105.383V88.5114H179.075V105.383H175.811ZM178.211 105.383V102.503H187.547V105.383H178.211ZM178.211 98.1594V95.3754H186.707V98.1594H178.211ZM178.211 91.3914V88.5114H187.427V91.3914H178.211ZM195.32 105.383L188.672 88.5114H192.2L197.336 102.167H195.968L201.152 88.5114H204.632L197.912 105.383H195.32ZM206.842 105.383V88.5114H210.106V105.383H206.842ZM209.242 105.383V102.503H218.578V105.383H209.242ZM209.242 98.1594V95.3754H217.738V98.1594H209.242ZM209.242 91.3914V88.5114H218.458V91.3914H209.242ZM223.103 105.623C222.527 105.623 222.055 105.431 221.687 105.047C221.319 104.663 221.135 104.191 221.135 103.631C221.135 103.071 221.319 102.599 221.687 102.215C222.055 101.831 222.527 101.639 223.103 101.639C223.663 101.639 224.127 101.831 224.495 102.215C224.863 102.599 225.047 103.071 225.047 103.631C225.047 104.191 224.863 104.663 224.495 105.047C224.127 105.431 223.663 105.623 223.103 105.623ZM230.181 105.623C229.605 105.623 229.133 105.431 228.765 105.047C228.397 104.663 228.213 104.191 228.213 103.631C228.213 103.071 228.397 102.599 228.765 102.215C229.133 101.831 229.605 101.639 230.181 101.639C230.741 101.639 231.205 101.831 231.573 102.215C231.941 102.599 232.125 103.071 232.125 103.631C232.125 104.191 231.941 104.663 231.573 105.047C231.205 105.431 230.741 105.623 230.181 105.623ZM237.26 105.623C236.684 105.623 236.212 105.431 235.844 105.047C235.476 104.663 235.292 104.191 235.292 103.631C235.292 103.071 235.476 102.599 235.844 102.215C236.212 101.831 236.684 101.639 237.26 101.639C237.82 101.639 238.284 101.831 238.652 102.215C239.02 102.599 239.204 103.071 239.204 103.631C239.204 104.191 239.02 104.663 238.652 105.047C238.284 105.431 237.82 105.623 237.26 105.623Z" fill="#F2F2F2" fill-opacity="0.9"/>
</svg>
